<?xml version="1.0" encoding="UTF-8" standalone="no"?>
<!-- Generator: Adobe Illustrator 19.0.0, SVG Export Plug-In . SVG Version: 6.00 Build 0)  -->

<svg
   xmlns:dc="http://purl.org/dc/elements/1.1/"
   xmlns:cc="http://creativecommons.org/ns#"
   xmlns:rdf="http://www.w3.org/1999/02/22-rdf-syntax-ns#"
   xmlns:svg="http://www.w3.org/2000/svg"
   xmlns="http://www.w3.org/2000/svg"
   xmlns:sodipodi="http://sodipodi.sourceforge.net/DTD/sodipodi-0.dtd"
   xmlns:inkscape="http://www.inkscape.org/namespaces/inkscape"
   version="1.1"
   id="Capa_1"
   x="0px"
   y="0px"
   viewBox="0 0 512 512"
   style="enable-background:new 0 0 512 512;"
   xml:space="preserve"
   inkscape:version="0.91 r13725"
   sodipodi:docname="american-football.svg"><metadata
     id="metadata73"><rdf:RDF><cc:Work
         rdf:about=""><dc:format>image/svg+xml</dc:format><dc:type
           rdf:resource="http://purl.org/dc/dcmitype/StillImage" /></cc:Work></rdf:RDF></metadata><defs
     id="defs71" /><sodipodi:namedview
     pagecolor="#ffffff"
     bordercolor="#666666"
     borderopacity="1"
     objecttolerance="10"
     gridtolerance="10"
     guidetolerance="10"
     inkscape:pageopacity="0"
     inkscape:pageshadow="2"
     inkscape:window-width="1632"
     inkscape:window-height="1029"
     id="namedview69"
     showgrid="false"
     inkscape:zoom="0.4609375"
     inkscape:cx="-44.474576"
     inkscape:cy="256"
     inkscape:window-x="48"
     inkscape:window-y="21"
     inkscape:window-maximized="1"
     inkscape:current-layer="Capa_1" /><g
     id="g3"
     style="fill:#ffffff;fill-opacity:1"><g
       id="g5"
       style="fill:#ffffff;fill-opacity:1"><path
         d="M481.665,235.733c-19.441-45.962-47.269-87.24-82.715-122.684c-35.445-35.445-76.721-63.274-122.683-82.714    C228.677,10.207,178.129,0,126.026,0C90.002,0,54.324,4.965,19.984,14.757c-2.526,0.72-4.508,2.702-5.227,5.227    C4.965,54.324,0,90.002,0,126.026c0,71.618,19.76,141.539,57.143,202.207c34.982,56.771,84.07,103.58,142.291,135.777    c3.727,2.061,8.425,0.652,10.411-3.116c1.93-3.662,0.572-8.189-3.051-10.192C150.861,419.769,103.7,374.798,70.09,320.255    c-17.774-28.844-31.393-59.871-40.622-92.193c38.729-24.681,75.68-54.492,109.89-88.703c20.65-20.65,39.895-42.531,57.286-65.129    c2.589-3.365,1.946-8.193-1.45-10.742c-3.321-2.493-8.037-1.867-10.57,1.424c-17,22.094-35.82,43.493-56.021,63.694    c-32.213,32.213-66.888,60.423-103.189,83.986c-2.947-12.317-5.267-24.798-6.943-37.397c30.547-19.511,59.691-43.049,86.682-70.04    c26.999-26.999,50.542-56.152,70.056-86.706c12.605,1.666,25.08,3.979,37.402,6.93c-2.803,4.317-5.677,8.628-8.612,12.905    c-2.35,3.426-1.506,8.104,1.889,10.5c3.466,2.446,8.265,1.582,10.666-1.917c3.961-5.773,7.814-11.606,11.531-17.436    c14.32,4.098,28.42,9.062,42.255,14.913c44.15,18.673,83.802,45.409,117.854,79.461c34.054,34.053,60.788,73.705,79.461,117.854    c5.852,13.835,10.815,27.934,14.913,42.254c-38.744,24.687-75.707,54.506-109.931,88.728    c-34.23,34.23-64.055,71.203-88.744,109.957c-14.952-4.281-29.657-9.523-44.077-15.72c-3.799-1.632-8.203,0.077-9.911,3.843    l-0.001,0.001c-1.759,3.878,0.007,8.454,3.92,10.135C281.931,501.526,333.075,512,385.973,512    c36.025,0,71.703-4.965,106.043-14.757c2.529-0.721,4.506-2.698,5.227-5.227C507.035,457.677,512,421.999,512,385.974    C512,333.871,501.794,283.323,481.665,235.733z M94.402,94.401c-24.344,24.345-50.472,45.784-77.798,63.872    c-0.927-10.69-1.396-21.448-1.396-32.247c0-33.186,4.384-66.061,13.033-97.785c31.724-8.649,64.599-13.033,97.785-13.033    c10.824,0,21.573,0.487,32.244,1.401C140.183,43.932,118.744,70.058,94.402,94.401z M299.36,486.652    c23.575-36.327,51.801-71.025,84.035-103.26c32.224-32.225,66.912-60.443,103.226-84.012c2.951,12.325,5.265,24.799,6.931,37.405    c-30.554,19.513-59.706,43.056-86.708,70.056c-27.008,27.008-50.558,56.172-70.076,86.739    C324.155,491.917,311.68,489.603,299.36,486.652z M483.759,483.759c-31.723,8.65-64.599,13.033-97.786,13.033    c-10.835,0-21.591-0.465-32.26-1.377c18.091-27.333,39.536-53.467,63.886-77.818c24.344-24.345,50.469-45.782,77.793-63.868    c0.913,10.67,1.4,21.42,1.4,32.245C496.792,419.16,492.408,452.036,483.759,483.759z"
         id="path7"
         style="fill:#ffffff;fill-opacity:1" /></g></g><g
     id="g9"
     style="fill:#ffffff;fill-opacity:1"><g
       id="g11"
       style="fill:#ffffff;fill-opacity:1"><path
         d="M360.94,285.474c-2.971-2.97-7.784-2.97-10.754,0l-20.14,20.14l-34.051-34.051l20.141-20.141    c2.97-2.97,2.97-7.783,0-10.753c-2.971-2.97-7.784-2.97-10.754,0l-20.14,20.14l-34.051-34.051l20.14-20.14    c2.97-2.97,2.97-7.783,0-10.753c-2.971-2.97-7.784-2.97-10.754,0l-20.14,20.14l-34.051-34.051l20.14-20.14    c2.97-2.97,2.97-7.784,0-10.753c-2.97-2.97-7.784-2.97-10.753,0l-20.14,20.141l-11.539-11.539    c-3.667-3.668-8.544-5.688-13.731-5.688c-5.187,0-10.064,2.02-13.732,5.688c-7.57,7.572-7.57,19.891,0,27.462l11.539,11.539    l-20.14,20.14c-2.97,2.97-2.97,7.784,0,10.753c1.484,1.485,3.431,2.227,5.377,2.227c1.946,0,3.892-0.742,5.376-2.227l20.14-20.14    l34.051,34.051l-20.14,20.14c-2.97,2.967-2.97,7.781,0,10.751c1.484,1.485,3.431,2.227,5.377,2.227    c1.946,0,3.892-0.742,5.376-2.227l20.14-20.14l34.051,34.052l-20.14,20.14c-2.97,2.97-2.97,7.783,0,10.753    c1.484,1.485,3.431,2.227,5.377,2.227c1.946,0,3.892-0.742,5.376-2.227l20.14-20.14l34.051,34.051l-20.141,20.141    c-2.97,2.97-2.97,7.783,0,10.753c1.485,1.485,3.432,2.227,5.378,2.227s3.892-0.742,5.378-2.227l20.14-20.14l11.539,11.539    c3.786,3.786,8.759,5.679,13.732,5.679c4.973,0,9.946-1.893,13.732-5.679c7.572-7.571,7.572-19.891,0-27.462l-11.539-11.539    l20.14-20.14C363.909,293.257,363.909,288.444,360.94,285.474z M178.923,187.909l-11.538-11.539c-1.641-1.641-1.641-4.314,0-5.956    c0.796-0.795,1.853-1.234,2.978-1.234c1.124,0,2.182,0.438,2.978,1.234l11.539,11.539L178.923,187.909z M223.729,232.713    l-34.052-34.051l5.956-5.956l34.051,34.051L223.729,232.713z M268.532,277.517l-34.051-34.05l5.955-5.955l34.052,34.051    L268.532,277.517z M313.338,322.322l-34.051-34.051l5.956-5.955l34.049,34.051L313.338,322.322z M341.585,338.658    c1.642,1.642,1.642,4.314,0,5.956c-1.643,1.642-4.316,1.64-5.955,0l-11.539-11.539l5.955-5.955L341.585,338.658z"
         id="path13"
         style="fill:#ffffff;fill-opacity:1" /></g></g><g
     id="g15"
     style="fill:#ffffff;fill-opacity:1"><g
       id="g17"
       style="fill:#ffffff;fill-opacity:1"><path
         d="M273.533,454.655c-3.66-5.546-12.483-3.744-13.768,2.737c-1.379,6.952,7.046,11.857,12.416,7.24    C275.066,462.15,275.612,457.817,273.533,454.655z"
         id="path19"
         style="fill:#ffffff;fill-opacity:1" /></g></g><g
     id="g21"
     style="fill:#ffffff;fill-opacity:1"><g
       id="g23"
       style="fill:#ffffff;fill-opacity:1"><path
         d="M66.685,239.929c-0.612-3.256-3.464-5.781-6.746-6.083c-2.946-0.271-5.866,1.245-7.321,3.822    c-1.663,2.945-1.145,6.723,1.232,9.124c2.129,2.151,5.508,2.802,8.293,1.642C65.435,247.065,67.413,243.437,66.685,239.929z"
         id="path25"
         style="fill:#ffffff;fill-opacity:1" /></g></g><g
     id="g27"
     style="fill:#ffffff;fill-opacity:1"><g
       id="g29"
       style="fill:#ffffff;fill-opacity:1"><path
         d="M68.495,266.93c-3.069,1.935-4.375,5.966-2.956,9.325c1.262,2.989,4.332,4.92,7.585,4.671    c3.184-0.244,5.899-2.478,6.759-5.548C81.727,268.801,74.245,263.305,68.495,266.93z"
         id="path31"
         style="fill:#ffffff;fill-opacity:1" /></g></g><g
     id="g33"
     style="fill:#ffffff;fill-opacity:1"><g
       id="g35"
       style="fill:#ffffff;fill-opacity:1"><path
         d="M94.089,215.901c-1.667-2.531-4.84-3.828-7.807-3.234c-3.24,0.649-5.762,3.42-6.077,6.713    c-0.316,3.306,1.594,6.487,4.658,7.765c2.949,1.231,6.471,0.416,8.59-1.971C95.733,222.607,95.97,218.757,94.089,215.901z"
         id="path37"
         style="fill:#ffffff;fill-opacity:1" /></g></g><g
     id="g39"
     style="fill:#ffffff;fill-opacity:1" /><g
     id="g41"
     style="fill:#ffffff;fill-opacity:1" /><g
     id="g43"
     style="fill:#ffffff;fill-opacity:1" /><g
     id="g45"
     style="fill:#ffffff;fill-opacity:1" /><g
     id="g47"
     style="fill:#ffffff;fill-opacity:1" /><g
     id="g49"
     style="fill:#ffffff;fill-opacity:1" /><g
     id="g51"
     style="fill:#ffffff;fill-opacity:1" /><g
     id="g53"
     style="fill:#ffffff;fill-opacity:1" /><g
     id="g55"
     style="fill:#ffffff;fill-opacity:1" /><g
     id="g57"
     style="fill:#ffffff;fill-opacity:1" /><g
     id="g59"
     style="fill:#ffffff;fill-opacity:1" /><g
     id="g61"
     style="fill:#ffffff;fill-opacity:1" /><g
     id="g63"
     style="fill:#ffffff;fill-opacity:1" /><g
     id="g65"
     style="fill:#ffffff;fill-opacity:1" /><g
     id="g67"
     style="fill:#ffffff;fill-opacity:1" /></svg>