<?xml version="1.0" encoding="iso-8859-1"?>
<!-- Generator: Adobe Illustrator 19.0.0, SVG Export Plug-In . SVG Version: 6.00 Build 0)  -->
<svg version="1.1" id="Capa_1" xmlns="http://www.w3.org/2000/svg" xmlns:xlink="http://www.w3.org/1999/xlink" x="0px" y="0px"
	 viewBox="0 0 512 512" style="enable-background:new 0 0 512 512;" xml:space="preserve">
<g>
	<g>
		<g>
			<path d="M428.806,475.283l-50.171-19.034V339.554c8.972-6.872,14.392-17.694,14.392-29.194c0-4.754-0.93-9.43-2.685-13.787
				c17.044-10.655,28.871-29.181,30.264-50.68l14.746-227.565c0.308-4.752-1.378-9.465-4.625-12.929
				C427.51,1.968,422.979,0,418.293,0h-27.626c-4.142,0-7.5,3.357-7.5,7.5s3.358,7.5,7.5,7.5h27.626c0.723,0,1.209,0.357,1.49,0.656
				c0.248,0.265,0.656,0.838,0.6,1.7l-5.736,88.527c-17.045,1.786-33.691,5.88-49.614,12.199
				c-4.845-6.836-12.773-11.305-21.722-11.305c-14.717,0-26.689,12.073-26.689,26.914c0,1.322,0.099,2.62,0.283,3.891
				c-5.153,1.4-10.381,2.57-15.648,3.49l-8.152-123.713c-0.057-0.863,0.351-1.438,0.599-1.702c0.281-0.3,0.767-0.657,1.49-0.657
				h65.474c4.142,0,7.5-3.357,7.5-7.5s-3.358-7.5-7.5-7.5h-65.474c-4.689,0-9.224,1.97-12.44,5.405
				c-3.248,3.469-4.93,8.185-4.617,12.94l14.999,227.617c1.408,21.375,13.139,39.809,30.049,50.475
				c-1.789,4.382-2.724,9.088-2.724,13.922c0,11.499,5.42,22.322,14.392,29.194v116.695l-50.17,19.034
				c-7.294,2.767-12.195,9.899-12.195,17.75c0,10.458,8.449,18.967,18.834,18.967h130.845c10.385,0,18.834-8.509,18.834-18.967
				C441,485.183,436.099,478.05,428.806,475.283z M343.311,121.777c6.445,0,11.689,5.345,11.689,11.914s-5.244,11.914-11.689,11.914
				c-6.446,0-11.689-5.345-11.689-11.914C331.622,127.122,336.865,121.777,343.311,121.777z M308.103,244.977l-5.856-88.862
				c7.078-1.174,14.103-2.747,20.989-4.717c4.896,5.637,12.077,9.208,20.075,9.208c14.716,0,26.689-12.073,26.689-26.914
				c0-0.48-0.014-0.957-0.038-1.431c14.038-5.632,28.692-9.382,43.7-11.179l-8.024,123.84
				c-1.682,25.957-23.104,46.289-48.769,46.289C331.231,291.211,309.811,270.902,308.103,244.977z M422.166,497H291.321
				c-2.114,0-3.834-1.779-3.834-3.967c0-1.657,1.011-3.154,2.516-3.725l55.01-20.871c2.913-1.105,4.839-3.896,4.839-7.013v-125.85
				c0-2.663-1.412-5.127-3.71-6.472c-6.589-3.858-10.682-11.04-10.682-18.744c0-2.578,0.457-5.089,1.314-7.455
				c6.336,2.136,13.092,3.306,20.095,3.306c6.924,0,13.606-1.145,19.879-3.233c0.84,2.351,1.28,4.847,1.28,7.382
				c0,7.704-4.093,14.886-10.681,18.744c-2.298,1.345-3.71,3.809-3.71,6.472v125.85c0,3.116,1.926,5.907,4.839,7.013l55.011,20.871
				c1.504,0.57,2.514,2.067,2.514,3.725C426,495.221,424.28,497,422.166,497z"/>
			<path d="M144.703,194.141c-12.071,0-21.892,9.896-21.892,22.061c0,12.165,9.82,22.061,21.892,22.061
				c12.072,0,21.892-9.896,21.892-22.061C166.595,204.037,156.773,194.141,144.703,194.141z M144.703,223.262
				c-3.8,0-6.892-3.167-6.892-7.061s3.092-7.061,6.892-7.061s6.892,3.167,6.892,7.061S148.503,223.262,144.703,223.262z"/>
			<path d="M227.319,475.283l-50.171-19.034V339.554c8.972-6.873,14.392-17.695,14.392-29.194c0-4.806-0.949-9.521-2.738-13.913
				c16.917-10.665,28.654-29.103,30.063-50.483l14.999-227.617c0.313-4.756-1.37-9.472-4.617-12.94C226.03,1.97,221.496,0,216.807,0
				h-123.1c-4.686,0-9.218,1.968-12.434,5.398c-3.247,3.464-4.932,8.177-4.625,12.929l14.746,227.565
				c1.393,21.497,13.218,40.021,30.259,50.677c-1.755,4.358-2.68,9.042-2.68,13.79c0,11.5,5.42,22.322,14.392,29.194v12.113
				c0,4.143,3.358,7.5,7.5,7.5c4.142,0,7.5-3.357,7.5-7.5v-16.092c0-2.663-1.412-5.127-3.71-6.472
				c-6.588-3.858-10.681-11.04-10.681-18.744c0-2.532,0.443-5.028,1.284-7.38c6.272,2.088,12.952,3.232,19.875,3.232
				c7.006,0,13.766-1.171,20.105-3.31c0.858,2.372,1.304,4.893,1.304,7.458c0,7.704-4.093,14.886-10.682,18.744
				c-2.298,1.345-3.71,3.809-3.71,6.472v125.85c0,3.116,1.926,5.907,4.839,7.013L222,489.308c1.504,0.57,2.515,2.067,2.515,3.725
				c0,2.188-1.72,3.967-3.834,3.967H89.833C87.72,497,86,495.221,86,493.033c0-1.657,1.01-3.154,2.515-3.725l55.01-20.871
				c2.913-1.105,4.839-3.896,4.839-7.013V380c0-4.143-3.358-7.5-7.5-7.5c-4.142,0-7.5,3.357-7.5,7.5v76.249l-50.17,19.034
				C75.901,478.05,71,485.183,71,493.033C71,503.491,79.448,512,89.833,512h130.845c10.385,0,18.834-8.509,18.834-18.967
				C239.514,485.183,234.613,478.05,227.319,475.283z M91.617,17.356c-0.056-0.862,0.352-1.436,0.6-1.7
				C92.497,15.357,92.984,15,93.707,15h123.1c0.723,0,1.209,0.357,1.49,0.657c0.248,0.265,0.656,0.839,0.599,1.702l-8.152,123.712
				c-5.266-0.92-10.495-2.088-15.648-3.489c0.183-1.271,0.283-2.569,0.283-3.891c0-14.841-11.973-26.914-26.689-26.914
				c-8.95,0-16.878,4.47-21.723,11.307c-15.93-6.323-32.567-10.415-49.613-12.198L91.617,17.356z M180.378,133.691
				c0,6.569-5.244,11.914-11.689,11.914S157,140.26,157,133.691c0-6.569,5.244-11.914,11.689-11.914
				C175.135,121.777,180.378,127.122,180.378,133.691z M155.132,291.211c-25.666,0-47.087-20.332-48.769-46.289l-8.024-123.833
				c15.007,1.795,29.655,5.54,43.699,11.177c-0.025,0.472-0.038,0.947-0.038,1.426c0,14.841,11.973,26.914,26.689,26.914
				c7.999,0,15.182-3.572,20.078-9.211c6.885,1.969,13.909,3.548,20.986,4.722l-5.856,88.86
				C202.189,270.902,180.768,291.211,155.132,291.211z"/>
			<path d="M389.189,216.201c0-12.164-9.82-22.061-21.892-22.061c-12.072,0-21.892,9.896-21.892,22.061
				c0,12.165,9.821,22.061,21.892,22.061S389.189,228.365,389.189,216.201z M360.405,216.201c0-3.894,3.092-7.061,6.892-7.061
				s6.892,3.167,6.892,7.061s-3.092,7.061-6.892,7.061C363.497,223.262,360.405,220.095,360.405,216.201z"/>
		</g>
	</g>
</g>
<g>
</g>
<g>
</g>
<g>
</g>
<g>
</g>
<g>
</g>
<g>
</g>
<g>
</g>
<g>
</g>
<g>
</g>
<g>
</g>
<g>
</g>
<g>
</g>
<g>
</g>
<g>
</g>
<g>
</g>
</svg>
