<svg id="Layer_1" xmlns="http://www.w3.org/2000/svg" viewBox="0 0 220 130" enable-background="new 0 0 220 130"><style>.st0{filter:url(#Adobe_OpacityMaskFilter);} .st1{fill:#FFFFFF;} .st2{mask:url(#mask-2_1_);fill:#575757;}</style><g id="Page-1"><g id="Case-Studies-Desktop"><g id="Clients"><g id="ferrari"><defs><filter id="Adobe_OpacityMaskFilter" filterUnits="userSpaceOnUse" x="76.9" y="6.3" width="73" height="117.6"><feColorMatrix values="1 0 0 0 0 0 1 0 0 0 0 0 1 0 0 0 0 0 1 0"/></filter></defs><mask maskUnits="userSpaceOnUse" x="76.9" y="6.3" width="73" height="117.6" id="mask-2_1_"><g class="st0"><path id="path-1_1_" class="st1" d="M149.9 65.1V6.3h-73V124h73z"/></g></mask><path id="Fill-1" class="st2" d="M135.3 68c-.1 1.3-.2 2.1-.9 3.1-.6.8-2.7 2.6-2 1.7.4-.7 1.7-1.3 2.2-3 .6-1.7.4-3.8.4-3.8v-.4c.1-.3.3-.1.3-.1l.1.1c-.3-.1 0 1.4-.1 2.4zm-9.4 9c-.3-.2.2-.7.2-1.3 0-.4-.1-.6-.1-1s.4-.4.4-.4c.1 0 .2.1.4.4.1.4-.4 2.6-.9 2.3zm-5.4 12.8c.2-.1.3 0 .3 0l.1.1s-.3.4-.4.4c-.2 0-.1-.2-.1-.2s0-.2.1-.3zM118.9 69c-.4.3-.5.3-.8.5-.3.4-.2 1.3-.5 1.1-.5-.2-.2-1.2.4-1.6.6-.5 1.7-.5.9 0zm-.4 22s-.8.9-1.3 1.4c-.5.5-1.4 1.3-1.4 1.3s-.1.1-.1 0c-.1 0 0-.1 0-.1v-.2l.1-.1.1-.1.1-.1.2-.2.4-.4.4-.4.7-.7.3-.4c.1-.1.2-.2.3-.2.1-.1.3-.2.4-.1-.2.2-.2.3-.2.3zm-1.7-28.1c-1-1.2-1.6-2.3-1.9-3.9-.1-.4-.1-.8.3-.8.3.1.3.5.3.7.1.9.4 1.9 1.1 3 1 1.5 2.7 2.8 2.6 2.8-.3.2-1.9-1.1-2.4-1.8zm-3.3-22.8c0-.1 1.4-.2 2-.8.1-.1 0 .3 0 .3s-.1.4-.4.5c-.3.1-1.6.1-1.6 0zm.8 5.6c-.9 1.6-2.1 2.8-2.1 2.8-.4.4-.1-.2-.1-.2s1.2-1.7 1.8-2.9c.4-.8.5-2 .8-2.2.3-.7.1 1.5-.4 2.5zm.4 39.1c-.1 0-.2.1-.4.1s-.1-.1-.1-.1.1-.2.3-.3c.2-.1.3 0 .3 0 0 .1-.1.3-.1.3zm-5.4-15.6c-2.1-1.7-4.8-5.1-4.5-5.4.3-.3 1.2 1.4 2.8 3.1 1.7 1.9 3.8 3.5 3.8 3.7.3.4-1.3-.7-2.1-1.4zM107 51.5c.1-.1 1-.7 2.5-.4.9.1 1.7.9 1.6 1-.1.1-.3-.1-.4-.1 0 0-.3-.1-.4-.2-.1 0-.4-.2-.4-.2s-.9-.2-1.4-.2c-.6 0-1.2.3-1.2.3s-.3.3-.4.1c0-.2.1-.3.1-.3zm4.5-12.3c-.2 0-.1-.2-.1-.2l.9-.4c.5-.3 1.6-1.4 1.3-.9-.2.3-.5.5-.5.5s-.4.6-.5.7c-.4.5-1 .3-1.1.3zm0-4.4s.1-.2.4-.4c.3-.2.6-.2.6-.2s.2 0 .4.2c.3.2.4.7.4.7s.1.4-.1.4c-.2.2-.4-.1-.5-.3l-.4-.4c-.3-.1-.6.2-.7 0-.1.2-.1 0-.1 0zm1.5-1s.2 0 .4.1.3.5.3.5 0 .1-.1.1-.1-.2-.2-.3c-.1-.1-.2-.2-.4-.2-.2-.1-.4 0-.4-.2h.4zm1.9 4.7c.1-.2 0 .3 0 .3s-.1.4-.3.5c-.3.2-1 .4-1.1.3.1-.1 1.1-.4 1.4-1.1zm-.9 56.3l-.3.2s-.3.2-.3.1c-.1-.1 0-.2 0-.3 0 0 .2-.3.4-.4.2-.1.3 0 .3 0-.1.3-.1.4-.1.4zm-3.4 3.2c-.2.2.2.5-.4.4-.4 0-.2-.4-.2-.4 0-.1.2-.3.3-.3l.4-.4.3.2s.1.1.1.2-.4.3-.5.3zm6.4-19.3c-.2.4-.3.6-.4 1.1s.2 1.8-.3 1.3c-.2-.2-.3-1.3-.2-1.8.3-1.1 1.2-1.4.9-.6zm-5.4 7c-.4.1-.6.1-1.1.1-.4 0-.5.1-.9.1-.6 0-.6 0-1.5-.3-.2-.1-.4-.3-.3-.4.1-.1.2-.1.2-.1s1.1.2 1.8.2c.5 0 .8.1 1.2 0h.6c.3.1.1.4 0 .4zm-5.6-.4c-.3 0-.3-.1-.3-.1s.1-.1.3-.1c.3 0 .3.1.3.1.1.1 0 .2-.3.1zm-4.8.3s0 .1-.2.3c-.3.2-.3.1-.4.1 0 0-.3-.1-.3-.3 0-.1.4-.2.4-.2.6-.1.5.1.5.1zm1.7-31.6s-.5.7-.8 1.2c-.4.6-.9 1.5-1 1.4-.1-.1.4-1.1.7-1.6.4-.7.8-1 1.1-1 .2-.3 0 0 0 0zm-3.8 6.3c-.4-.1-1.3-.8-1.8-1-.4-.2-1-.3-.7-.5.1 0 .1-.1.2-.1s.4.1.4.1l.7.3s.4.2.6.4c.3.2.7.4.7.4l.2.2c-.1 0 .1.2-.3.2zm-3 9.6c.1-.1.4.2.4.2.2.1.3.4.3.4s.1.2-.1.3c-.2.1-.4-.1-.4-.1s-.2-.6-.2-.8zm-2.3-13.2c-.3.4-.4.4-.4.4s-.1-.2.1-.5c.2-.4.4-.4.4-.4.1 0 .1.1.1.1s.1.1-.2.4zm.1 6.7c-.1 0-.2-.2-.2-.2s-.3-.4-.4-.6-.1-.6-.1-.6-.1-.5-.1-.7c0-.3 0-.4.1-.6 0-.1.2-.1.2-.1.2 0 .2.2.2.2v1.1c.1 0 .4 1.4.3 1.5.1-.1.1 0 0 0zm4.9-9.5c-.3.3-.4-.1-.8-.5s-.4-.8-.4-.8h.2l.2.1.1.1s.1.2.3.3c.2.2.4.7.4.8zm-2.6-4.4s-.6.2-.5-.1c.1-.2.5-.3.5-.3.4.1.4.1.4.3.1.1-.4.1-.4.1zM93.9 52c-.3.3-1.2 2-1.3 1.7-.2-.3.8-1.8 1.1-2.1.3-.4.4-.3.4-.3.1 0 .1.1.1.1s0 .2-.3.6zM90 58.2s-.3.6-.4.4c-.1-.3.1-.6.1-.6.3-.2.4-.5.4-.4.2-.1-.1.6-.1.6zm-.8 3.5c0 .2-.2.4-.3.4-.1 0-.2-.3-.2-.4s.1-.6.3-.5c.3 0 .2.4.2.5zm21.1-27.3s-.4.7-1 .9c-.5.3-1 .4-2 .4-.2 0-.1-.1-.1-.1s1.2-.4 2-.7c.4-.2.8-.5 1-.6.4-.4.1.1.1.1zm-3.4 4.3s-.1 0-.2-.2c0-.3.2-.3.2-.3s.4-.2.4.1c.1.2-.4.4-.4.4zm-2.6-1c-.1.1-.2.1-.3.2-.2.1-.3.4-.4.4-.1-.1-.1-.4-.1-.4s.1-.3.3-.5.4-.3.4-.3c.2 0 .5.1.5.4.1.2-.2.1-.4.2zm12.7 15c.1-.1.2 0 .2 0h.1s.2.2.2.3-.2 0-.3 0c-.1 0-.3-.1-.3-.1s0-.2.1-.2zm.2-20.5c.2-.1.4-.1.4-.1s.1 0 .2.1.3.3.3.4c0 .1-.4 0-.5-.1-.2 0-.4-.2-.4-.2s-.1 0 0-.1zm1.2 1.6s.1 0 .2.1.3.3.3.4c0 .1-.4 0-.5-.1-.2 0-.4-.2-.4-.2s-.1-.1.1-.2.3 0 .3 0zm1.4 1.9c.3.1.3.2.2.3h-.3c-.3 0-.3-.1-.6.1s-.1.1-.6.3c-.5.2-.4-.4-.4-.4s0-.1.1-.4c.1-.3.4 0 .6 0 .4 0 .8 0 1 .1zm-.4 4.8c-.2 0-.5-.3-.5-.3s-.1-.1.2-.3c.2-.1.5-.1.5-.1s.1 0 .2.1.4.4.4.5c-.1.3-.5.1-.8.1zm-.4 1c.2-.1.5-.1.5-.1s.1 0 .2.1.4.4.4.5c0 .2-.4 0-.6-.1-.2 0-.5-.3-.5-.3s-.2 0 0-.1zm.9-2.3c0 .2-.4 0-.6-.1-.2 0-.4-.3-.4-.3s-.1-.1.1-.2.4-.1.4-.1.1 0 .2.1.3.4.3.6zm-.7-1.4c-.2 0-.4-.2-.4-.2s-.1-.1.1-.2.4-.1.4-.1.1 0 .2.1l.4.4c-.1.2-.5 0-.7 0zm.2 5.9c-.3 0-.6-.4-.6-.4s-.1-.1.2-.3c.3-.2.5-.1.5-.1s.1 0 .2.1.4.4.4.6c.1.4-.4.1-.7.1zm-.2 1.4c-.2 0-.5-.3-.5-.3s-.1-.1.2-.3c.2-.1.5-.1.5-.1s.1 0 .2.1.4.4.4.5c-.1.3-.6.1-.8.1zm-.2 1.3c-.2 0-.4-.3-.4-.3s-.1-.1.1-.2.4-.1.4-.1.1 0 .2.1.3.3.3.4c.1.3-.4.1-.6.1zm-.2 1.2c-.2 0-.4-.2-.4-.2s0-.1.1-.2c.2-.1.4 0 .4 0s.1 0 .1.1c.1.1.3.3.3.4s-.3-.1-.5-.1zm-.2 1.2c-.2 0-.4-.2-.4-.2s0-.1.1-.2.3 0 .3 0 .1 0 .1.1c.1.1.2.3.3.4 0 .1-.3-.1-.4-.1zm-.3 1c-.2 0-.4-.2-.4-.2s0-.1.1-.2.3 0 .3 0 .1 0 .1.1c.1.1.2.3.3.4 0 0-.3-.1-.4-.1zm-.3 1c-.1 0-.3-.2-.3-.2s0-.1.1-.1c.1-.1.3 0 .3 0s.1 0 .1.1c0 0 .2.2.2.3-.1 0-.4-.1-.4-.1zm-.5 1.1c-.1 0-.3-.1-.3-.1l.1-.1h.3s.2.2.2.3c.1 0-.2-.1-.3-.1zm20.8 5.6c-.3.4-.4 1.2-.8 1.8-.5.9-1.4 2-1.8 2-.3 0-.3-.5-.3-.5s-.3-.8.2-2c.4-.7.5-1 1-1.5.4-.5.6-.8 1-1.4.3-.5.3-.6.4-1.4 0-.2 0-.6-.2-.5-.3 0-.9 1.5-1.7 2.3-.7.8-2 1.8-2 1.8s-.1.1-.2-.2c0-.2-.1-.9.1-1.4.1-.6.4-1.2.9-2.1.6-1.1 1.3-1.8 1.8-2.1.2-.2.6-.4.4-.6-.2-.2-.9.4-1.3.8-.6.4-.8.6-1.5 1.3-.6.7-.8 1.1-.8 1.1s-.6 1-.7 2c-.2 1-.2 1.5-.2 1.5s0 .8.1 1.3.3 1.3.3 1.3.3.9.4 1.5c.1.5.4 2.2.4 2.2s.2 1.2.1 2.3c-.1 1.2-.2 1.8-.4 2.1-.1.4-.4 1.3-1.1 1.9-.5.6-.6.7-.6.7s-.5.4-1.1.7c-.4.3-1.2.5-1.5.6-.3.1-.7.1-.8.1h-.4V73l-.1-.3s-.3-1.3-.7-2.1c-.3-.6-1-1.6-1-1.6s-1.2-1.5-2-2.4c-1-1-2.1-1.8-2.8-2.3l-.8-.5s-2.3-2.3-3.1-4.1c-.5-1.3-1-2.2-.8-3.6 0-.4.2-.9.3-.9.1 0 .4.1.4.1s.4.4.7.4c.2.1.5.1.5.1s.3 0 .4.1l.6.3c.2.1.4.3.4.3s.4.4.5.4c.1 0 .5.4.5.4s.4.2.4.3c.1 0 .2.1.2.1h.1s.2 0 .2-.2-.2 0-.4-.4c-.3-.3-.4-.5-.4-.5s-.1-.3-.3-.5l-.5-.5s-.2-.2-.5-.3c-.4-.1-.4-.1-.4-.2s.4-.1.4-.1.4.1.8.3c.4.2.6.4.6.4l.3.2.2.2.2.1s.2.2.2-.1c0-.2 0-.4-.1-.4 0-.1-.2-.2-.2-.2l-.6-.5c-.2-.2-.4-.4-.5-.4-.2-.1-.4-.4-.8-.4-.3-.1-.5-.1-.8-.3-.2-.1-.4-.2-.5-.4 0 0-.2-.2.1-.1s.4.2.8.3c.5.1.8.1 1.3.3l.4.2.6.3s.8.4 1.4.4 1.1-.1 1.2-.2c.2-.1.5-.3.6-.4l.2-.2s0-.1.1-.2v-.1c-.2-.2-.4.4-1 .4s-.5.2-.8.1c-.4-.1-.6-.2-.9-.4-.5-.4-.7-.9-1.3-1.2-.3-.2-.8-.3-.8-.3s-.7-.2-1.1-.4c-.3-.2-.9-.3-.7-.5.1-.1.8.4 1.4.4.4.1.7 0 1 0 .4 0 .8-.1.8-.1.1 0 .4 0 .5.1.3.1.4.2.5.3s.4.3.5.3h.2s.1 0 .1-.1V52l-.1-.1-.2-.1s-.3-.2-.5-.4c-.3-.3-.4-.5-.9-.6-.4-.2-.8-.2-.8-.2h-.6s-.3-.1-.1-.2c.3-.1.4-.1.4-.1s.4-.1.7 0c.3.1.6.3.7.4 0 0 .4.3.8.4.4.1 1 .1 1 .1s.2 0 .3-.1h.1s.1 0 .1-.1v-.2s0-.2-.2-.2-.5-.1-.9-.4c-.4-.3-.6-.5-.6-.5s-.3-.3-.7-.4c-.4-.1-.6-.2-.6-.2l-.2-.1-.4-.2s-.2-.1-.3-.3c-.1-.2-.4-.4.2-.3.5.2.6.3.6.3s.3.3.5.3.3.1.4-.1c.2-.2-.3-.4-.6-.5-.3-.2-.5-.5-.5-.5s-.2-.2.1-.1.8.4.8.4.3.1.4.2c.1 0 .4.2.4.3.1 0 .4.1.5.2.3.2.4.4.5.5.1.1.2.3.4.3s.2.1.3 0l.1-.1s0-.1-.1-.2c-.2-.1-.4-.4-.4-.4l-.1-.2v-.1l-.2-.3-.3-.4s-.4-.6-.8-.8c-.4-.2-.6-.4-.6-.4s-.2-.1-.3-.2c-.2-.1-.2-.2-.4-.4s-.3-.4-.4-.5c-.4-.4-1.4-.5-1-.8.2-.1.5-.1.6 0 .1 0 .4.2.7.3.2.1.4.1.5.1.2.1.4.1.5.2.1.1.2.2.3.2 0 0 .3.4.7.6.4.2.6.4 1.2.4.4 0 .9-.1.9-.1s.2-.1 0-.2l-.3-.3c-.5-.2-.9-.1-1.2-.5l-.4-.4c-.1-.3-.1-.3-.2-.4-.1-.2-.3-.4-.3-.4s-.4-.5-1-.8-.9-.5-1-.6c-.1-.1-.3-.4-.3-.4s-.2-.2-.2-.3.3 0 .3-.1c-.1-.4.5.1.9.2.5.2.8.4 1.4.6.4.1.5.1.8.3.5.2.7.7 1.2.8.4 0 1 .2.8-.2-.1-.4-.7-.3-1.1-.7-.2-.2-.2-.3-.3-.4-.3-.3-.9-.6-.9-.6s-.2-.2-.4-.6c-.2-.4-.7-.7-1.5-1.2-.5-.3-1.7-.4-1.2-.6.3-.2.4-.2.8-.1s.4.3.7.4c.3.2.4.2.4.2.1 0 .3.1.4.2.1.1.5.1.6.1.1 0 .6.2.6.2l.5.2s.3.1.4.1c.2 0 .4-.1.4-.1l.2-.1v-.1s.1-.2-.2-.2h-.4l-.2-.1h-.1s-.4-.4-.8-.5-.4-.2-.4-.2h-.4s-.2 0-.4-.3l-.5-.5-.3-.3s-.3-.2-.3-.4c0-.3.5.3.5.3l.4.3s.3.3.9.3c.5 0 1.2-.2 1.2-.2s.1-.1.4 0c.4.1.5.3.5.3l.3.2.4.4h.1s.2-.2-.1-.5c-.3-.4-.8-.6-.8-.6s-.6-.4-1.2-.5c-.6-.1-.9-.1-.9-.1s-.4 0-.7-.4c-.3-.4-.4-.6-.4-.6l-.2-.2-.4-.4c-.3-.1-.6-.3-.6-.3s-.4-.2-.5-.4c-.1-.4.8 0 1.2.1s.6.3 1.1.4c.4.1.6.1 1 .1.3 0 .4 0 .5-.1.3 0 .4-.1.6 0 .4.1.4.2.7.4.2.1.3.2.5.3.2 0 .5.2.5-.1 0-.1-.1-.1-.1-.1-.2-.2-.4-.3-.5-.4-.4-.3-.6-.5-1.1-.8-.4-.2-.5-.2-.9-.3-.3-.1-.4 0-.7 0-.3-.1-.4-.3-.6-.4-.4-.3-.7-.4-1.2-.6-.4-.1-.9-.3-.9-.3h-.3c-.4-.2.8-.5 1.3-.6.3-.1.4-.1.7-.1s.5.4.8.2c.4-.3-.4-.8-.7-.9-.4-.2-1.1 0-1.1 0H120l-.4-.1s-.3 0-.4-.2c-.2-.2-.9-1.1-1.8-1.3-.8-.1-1.1 0-1.2-.1-.7-1.2-1.5-1.4-2-2-.2-.2-.4-.5-.4-.4-.1 0-.2.5-.4.9s-.1.7 0 .9c.1.2.3.3 0 .5-.4.2-.7.2-.7.2s-.4-.1-.6-.2c-.3-.2-.9-.4-.9-.4s-.5-.2-1-.1c-.4 0-.4.1-.7.1-.2 0-.3 0-.4.1-.1 0-.3-.1-.3.1s.4.2.5.3c.3.1.7.1.6.2-.1.1-.6.2-.6.1 0 0-.4-.1-.6-.1-.4 0-.4 0-1.1.4-.1 0-.1.3.2.2.2-.1.5-.1.9-.1s.6.1 1 .2.4.2.8.2c.1 0 .3-.1.3.1 0 .1-.2.2-.2.2s-.3.1-.3.2c.1.1.4 0 .4 0 .1 0 .4 0 .3.2 0 .1 0 .1-.1.1-.4.1-.5.2-.9.3-.8.3-1.1.7-1.9 1.1-.7.4-1.9.8-1.9.8s-.4.2-.8.3c-.5.1-.5.1-.9.2-.4 0-.5.1-.8.3-.2.1-.3.2-.4.4l-.4.6-.3.4c-.1.1-.1.2-.2.3-.1.2-.1.3-.2.4-.1.4 0 .6.1 1 0 .1 0 .2.1.3 0 .1.2.2.2.2h.1s.4 0 .7-.1c.3-.1.7-.2.7-.2s.4-.2.5-.2l.4-.1s.2 0 .3.1c0 .1-.1.3-.1.3l-.4.2-.5.2-.4.1-.3.1s-.1 0-.2.1 0 .1 0 .2l.2.2c.1.1.2.2.4.2.2.1.4.1.5.1.4 0 .5-.1.8-.2.3-.2.4-.2.7-.3.1 0 .3-.1.4-.1.6-.1 1 0 1.5.2.6.1.9.3 1.5.4s1 .3 1.7.2c.4-.1.5-.2.7.1.2.3.2.4.2.4s0 .2-.2.8c-.2.6-.9 2.1-.9 2.1l-.4 1s-.4.7-1.2 1.7-1 1.1-1 1.1-.4.4-1 .9c-.4.6-.4.8-.9 1.3-.3.3-.4.4-.8.6-.4.2-.7.2-1.9.9-1 .6-1.4 1.2-1.5 1.2s-.4-.3-.4-.4c-.1-.1-2-1.3-2-1.3l-.8-.5-.4-.2.4-.9-.2-.3s-.3-.4-.6-.6c-.4-.3-.7-.5-1.3-.7-.5-.2-.9-.3-1.4-.1-.4.1-.5.3-.8.5-.4.3-.4.5-.6.9-.3.4-.5.7-.6.9l-.5.7s-.6 1-1 1.7-.5 1.2-1 1.9c-.6 1.1-1.4 2.2-1.7 2.8l-.3.5s-.1.3-.1.4 0 .5-.1.6c0 .2-.1.3-.2.4 0 0-.4.7-.5 1.3-.1.4-.4 2-.1 2.1.4.2 2.9-.9 3.2-2 .2-.7-.7-1.1-.4-1.7.1-.2.2-.3.3-.4.3-.4.2-1.3.6-2.1.4-.5 1.1-1.3 2-2.4.6-.6 1.2-1.8 1.2-1.8s.1-.4.4-.4c.3.1.5 0 .5 0s.1.1.2.1l.3.3.4.5.8 1.2c.2.3.4.4.7.7.4.4.4.4.9.8.6.5.4.7-.4.3-.3-.2-.7-.3-1.1-.4-.4-.1-1.8-.4-2.5-.5-.7-.1-.8-.1-.8-.1s-.4 0-.7.3c-.4.3-.6.4-.6.4s-.4.5-.5.6c0 .1-.3.4-.3.4l-.2.4c-.1.3 0 .4 0 .4v.9s.1 1.1.4 2.2c.1.4.1.8.1.8l.2 1.2s.1 1.3.2 1.6c.1.4.2.4.2.7.1.4-.1.7.2 1.3.3.5.4.4.6.8l.4.6c.1.4.5 1.3 1 2.1s1.2 1.8 1.6 1.7.7-.8.7-.8.5-1.3.2-2.7c-.4-1.3-1.8-.7-2-1.7v-.5s0-.4-.1-.5-.5-1.1-.8-1.9c-.2-.6-.1-2.5-.3-3-.4-1.4-.4-1.3-.2-1.5.2-.3.4-.2.4-.2h.3l.2.1s.3.2.4.3c.2.1.5.4.5.4l1.1.7s.6.4.9.4c.3.1.4.3.4.3l.3.2.4.4.1.1.1.1s.2.5 1.2 1.1c.8.4 1.4.3 1.7.6.1.1.6.8.9 1.3.3.5.7 1.1.8 1.3.1.2.9 1.2.9 1.2l1 1.2 1.3 1.3 1.2 1.1s1.4 1.3 2.2 1.8c.7.5 1.7 1.3 2.1 1.8.6.6.9 1.1.7 1.3-.2.1-.6-.5-1.1-1.1-1-1-2.7-2.2-2.8-2.1-.3.6-.2 1.5-.2 2.3 0 .5.1 1.2.3 1.9.2.7.4 1.1.5 1.7.3.7.7 1.7.7 1.7l.7 1.4.6 1.1.4.5.1.2s.2.4 0 .6c-.2.3-.4.8-.6.8-.3.1-1 .1-1 .1l-3.7-.1-2-.2s-.2-.2-1.3-.1c-.6 0-1.2.3-1.6.3-.3 0-1.9-.1-2.8.4-1 .4-1.4.5-1.8 1.2-.3.4 1.2 1.3 2.4 1.5 2 .4 1.4-.4 2.1-1 .1-.1.1-.2.3-.2.5-.2.8.3 1.3.3s.9-.2 1.4-.3c2.8-.4 7.3 1 7.3 1s1.1.4 1.6.3c.6-.1.4-.4.7-.7.2-.3.3-.4.3-.6 0-.2 0-.3-.1-.4-.1-.5-.4-1.3-.4-1.3s-.3-.5-.4-.9c-.1-.4-.3-.6-.3-1.1-.2-1.2-.2-1.1-.2-1.7 0-1.2.1-1.9.4-3 .5-1.7 1.5-2.4 2-4 .1-.4 0-1.1.3-1.2.3 0 .3.8.1 1.3-.7 2.2-1.3 2.4-1.9 4-.5 1.5-.5 1.9-.4 3.4 0 .7.4 1.9.4 1.9s.4 1.3.5 1.7c.2.4.5 1.3.5 1.3l.9 1.5.4.7s.4.3.2.7c-.2.4-.4.7-.9 1.2-1.1 1.3-3.6 3.1-4.2 3.6-.9.6-.9.8-.9 1.1-.4 1-1.3 1.1-2.5 2.2-.3.3-.9 1-.8 1.5.1.2 2.8.7 4.4 0 1.2-.5.2-1.2.5-1.7.3-.4.9-.4 1.2-.8.4-.6.2-.6.6-1.1 1.3-1.6 2.2-2.6 4.6-4 .3-.2.6-.3.6-.3s.4-.2.4-.4c.2-.3.1-.4.1-.8v-1c-.1-.4-.3-.6-.4-.8-.1-.2-.4-.4-.4-1.1-.2-.6-.2-1.2.1-1.8.3-.6.8-1.3.8-1.3l1.4-1s1.2-.9 1.6-1.3c.4-.4 1.2-1.1 1.8-1.9.6-.9 1-1.5 1.2-2.6.1-.4.2-1.1.2-1.1s0-.4.3-.4.3.1.3.1.3.1.3.8c.1.6-.2 1.3-.2 1.3s-.2.7-.3 1.2v.7c0 .5.3 1 .3 1s.1.1.1-.2.1-.6.2-1 .2-.3.4-.8c.3-.7 0-.6.2-1 .1-.2.2-.4.4-.4s.2.3.2.3.2.8 0 1.6c-.2.7-.7 1.8-.7 1.8l-.4.8-.4.9c-.2.4-.2.5-.1.9s.4.9.5.8c.2-.1-.2-.4.2-1.2.4-.7.9-1.3.9-1.3s.7-.8 1-1.4c.3-.5.5-1.5.5-1.5s.2-.8.2-1.5-.2-1-.2-1-.3-.4-.3-.5-.2-.3-.2-.4 0-.2.1-.3c.1 0 .3.1.4.4.2.3.4.6.4 1 .1.4.1.6.1.9s-.1 1.3.3 2c.2.3.5 1.1.5.7.1-.7-.3-1.1-.2-1.7 0-.7.2-.5.3-1 .1-.4.2-.5.1-1.1-.1-.5-.3-1.2-.3-1.2s-.2-.4-.2-.5-.1-.2-.1-.2.1-.1.2-.1.8-.3.8-.3 1-.4 1.3-.7c.4-.3.9-.8.9-.8s.6-.8.9-1.3c.7-1.4.8-3.2.7-4 0-.8-.3-1.9-.3-1.9s-.3-1.3-.2-2.1c.1-.8.1-1.3.1-1.3s0-.8.6-1.7c.7-.9 1-1.4 1.2-2.1 1.3.2 1.1-.7.8-.4zm-26.2-26.9c.3.1.4.3.6.3.3.1.5.3.6 0 .1-.2 0-.4-.2-.7-.3-.4-.4-.5-.7-1.1-.1-.1-.2-.3-.3-.3 0 0 0 .4-.2.7-.1.3-.4.4-.4.5.2.2.3.4.6.6zm-21.7 82v-1.3H89v4.4h2.2v1.3h-6.6v-1.3h1.8V106H85v-1.7h51.7v1.7H89v3.8h1.3v-1.2h1.4v3.8h-1.3zm41.3-2.6v-2.1h-3.4v1.3h.9v6.5h-.9v1.3h4.2v-1.3h-.8v-3.5c0-.4 2-2.9 2-2.5v3.5h2.3v-3.9c0-.9-.6-1.4-1.6-1.4-1.4-.1-2.2 1.4-2.7 2.1zm6.4-3.9h2.5v-1.7h-2.5v1.7zm-37.5 7.9h-2.3v.7c0 .9-.2 1-1.3 1-1.3 0-1.2-.1-1.2-1v-1.6h4.9v-3.5c0-1.3-1-1.8-3.5-1.8h-.4c-2.8 0-3.5.6-3.5 2.2v5.2c0 1.7 1.1 2.1 3.5 2.1h.2c2.8-.1 3.6-.3 3.6-1.9V114zm-4.9-4.2c0-.4.2-.7.7-.7h1.1c.4 0 .7.2.7.5v2.7h-2.4l-.1-2.5zm9.5.2v-2.1h-3.4v1.3h.9v6.5h-.9v1.3h4.2v-1.3h-.8v-3.5c0-.4 2-2.9 2-2.5v3.5h2.3v-3.9c0-.9-.5-1.4-1.6-1.4-1.2-.1-2.1 1.4-2.7 2.1zm35.4 5.7v-7.8h-3.4v1.3h.9v6.4h-.9v1.4h4.3v-1.4h-.9zm-26.7-5.7v-2.1h-3.4v1.3h.9v6.5h-.9v1.3h4.2v-1.3h-.8v-3.5c0-.4 2-2.9 2-2.5v3.5h2.3v-3.9c0-.9-.6-1.4-1.6-1.4-1.3-.1-2.2 1.4-2.7 2.1zm5.7.7v-.8c0-1.8.9-2.1 3.6-2.1 2.5 0 3.3.4 3.3 1.9v6.1h.9v1.3h-6.1c-1.2 0-2.1-.9-2.1-2v-1.3c0-1.1.5-2 2.4-2h2.3V110c0-1-.1-1.1-1.1-1.1-1.2 0-1.2.2-1.2 1.1v.7h-2zm2.7 2.2c-.4 0-.7.4-.7.9v1.2c0 .4.2.8.7.9h.9c.4 0 .9-.2.9-.9v-2.1h-1.8zm24-106.6c2 0 3.7 1.6 3.7 3.7v110.3c0 2.1-1.6 3.7-3.7 3.7H80.6c-2 0-3.7-1.6-3.7-3.7V10c0-2.1 1.6-3.7 3.7-3.7h65.7zm0 1.5H80.6c-1.2 0-2.2 1-2.2 2.1v110.3c0 1.3 1 2.1 2.2 2.1h65.7c1.2 0 2.2-1 2.2-2.1V10c0-1.3-1.1-2.2-2.2-2.2zm-66-.1h66.1c1.1 0 2 1 2 2.1v2.6H78.3V9.9c0-1.2.9-2.1 2-2.2zm-2 15.1h70.2v-5.4H78.3v5.4z"/></g></g></g></g></svg>