<?xml version="1.0" encoding="iso-8859-1"?>
<!-- Generator: Adobe Illustrator 19.0.0, SVG Export Plug-In . SVG Version: 6.00 Build 0)  -->
<svg version="1.1" id="Capa_1" xmlns="http://www.w3.org/2000/svg" xmlns:xlink="http://www.w3.org/1999/xlink" x="0px" y="0px"
	 viewBox="0 0 512 512" style="enable-background:new 0 0 512 512;" xml:space="preserve">
<g>
	<g>
		<g>
			<circle cx="256" cy="393.143" r="9.143"/>
			<circle cx="256" cy="228.571" r="9.143"/>
			<path d="M256,347.429c-25.247,0-45.714,20.467-45.714,45.714s20.467,45.714,45.714,45.714s45.714-20.467,45.714-45.714
				C301.685,367.908,281.235,347.458,256,347.429z M256,420.571c-15.148,0-27.429-12.28-27.429-27.429s12.28-27.429,27.429-27.429
				c15.148,0,27.429,12.28,27.429,27.429C283.412,408.284,271.142,420.555,256,420.571z"/>
			<path d="M320,9.143c-0.007-5.047-4.096-9.136-9.143-9.143H201.143c-5.047,0.007-9.136,4.096-9.143,9.143V128h128V9.143z"/>
			<path d="M466.286,493.714H45.714c-5.049,0-9.143,4.093-9.143,9.143S40.665,512,45.714,512h420.571
				c5.049,0,9.143-4.093,9.143-9.143S471.335,493.714,466.286,493.714z"/>
			<path d="M338.286,438.857V155.429c-0.007-5.047-4.096-9.136-9.143-9.143H182.857c-5.047,0.007-9.136,4.096-9.143,9.143v283.429
				c-0.005,13.514-5.023,26.545-14.084,36.571h192.74C343.309,465.403,338.29,452.371,338.286,438.857z M256,457.143
				c-35.346,0-64-28.654-64-64c0-35.346,28.654-64,64-64c35.346,0,64,28.654,64,64C319.96,428.473,291.33,457.103,256,457.143z
				 M256,292.571c-35.346,0-64-28.654-64-64c0-35.346,28.654-64,64-64c35.346,0,64,28.654,64,64
				C319.96,263.901,291.33,292.532,256,292.571z"/>
			<path d="M256,182.857c-25.247,0-45.714,20.467-45.714,45.714c0,25.247,20.467,45.714,45.714,45.714s45.714-20.467,45.714-45.714
				C301.685,203.336,281.235,182.887,256,182.857z M256,256c-15.148,0-27.429-12.28-27.429-27.429
				c0-15.148,12.28-27.429,27.429-27.429c15.148,0,27.429,12.28,27.429,27.429C283.412,243.713,271.142,255.983,256,256z"/>
		</g>
	</g>
</g>
<g>
</g>
<g>
</g>
<g>
</g>
<g>
</g>
<g>
</g>
<g>
</g>
<g>
</g>
<g>
</g>
<g>
</g>
<g>
</g>
<g>
</g>
<g>
</g>
<g>
</g>
<g>
</g>
<g>
</g>
</svg>
