<?xml version="1.0"?><svg width="640" height="480" xmlns="http://www.w3.org/2000/svg">
 <title>Nike</title>
 <g>
  <title>Layer 1</title>
  <g id="svg_1">
   <metadata fill="#000000">Created by potrace 1.10, written by Peter Selinger 2001-2011</metadata>
   <g fill="#000000" transform="translate(0,220) scale(0.10000000149011612,-0.10000000149011612) ">
    <path stroke="#000000" fill="#000000" d="m3386.36377,894.545471c-18.181885,-5.090881 -101.091064,-28.363647 -185.45459,-50.909058c-83.636475,-22.545471 -280,-75.636414 -436.36377,-117.818176c-298.908936,-81.45459 -341.09082,-88.727295 -386.181641,-65.45459c-32.727295,16.727295 -58.181885,50.181824 -63.272949,82.909119c-4.363525,25.454529 6.545654,87.272705 20.36377,121.454529c21.818115,51.636353 -78.54541,-87.272705 -117.09082,-162.909119c-26.181885,-50.181763 -28.36377,-59.636353 -28.36377,-114.181763c0,-56.000061 1.45459,-60.363647 21.09082,-81.45459c50.90918,-53.090881 125.818359,-65.454529 219.636475,-36.363647c26.90918,8.727295 203.636475,81.45459 391.272705,162.909119c188.36377,80.727295 401.45459,173.090942 473.45459,203.636353c72,31.272766 133.818359,59.636353 138.181641,62.545471c9.45459,8.727234 -8,7.272766 -47.272461,-4.363647z"/>
   </g>
  </g>
 </g>
</svg>