<?xml version="1.0" encoding="iso-8859-1"?>
<!-- Generator: Adobe Illustrator 19.0.0, SVG Export Plug-In . SVG Version: 6.00 Build 0)  -->
<svg version="1.1" id="Capa_1" xmlns="http://www.w3.org/2000/svg" xmlns:xlink="http://www.w3.org/1999/xlink" x="0px" y="0px"
	 viewBox="0 0 512.004 512.004" style="enable-background:new 0 0 512.004 512.004;" xml:space="preserve">
<g>
	<g>
		<g>
			<rect x="457.145" y="219.431" width="18.286" height="164.571"/>
			<polygon points="73.145,378.666 234.739,301.716 73.145,224.767 			"/>
			<polygon points="438.859,224.767 277.265,301.716 438.859,378.666 			"/>
			<polygon points="407.539,219.431 104.465,219.431 256.002,291.592 			"/>
			<path d="M54.859,9.145c0-5.049-4.093-9.143-9.143-9.143s-9.143,4.093-9.143,9.143v9.143h18.286V9.145z"/>
			<rect x="36.573" y="182.859" width="438.857" height="18.286"/>
			<path d="M475.431,9.145c0-5.049-4.093-9.143-9.143-9.143c-5.049,0-9.143,4.093-9.143,9.143v9.143h18.286V9.145z"/>
			<path d="M9.145,54.859h493.714c5.049,0,9.143-4.093,9.143-9.143s-4.093-9.143-9.143-9.143H9.145
				c-5.047,0.007-9.136,4.096-9.143,9.143C0.009,50.763,4.098,54.853,9.145,54.859z"/>
			<polygon points="256.002,311.841 104.465,384.002 407.539,384.002 			"/>
			<path d="M501.031,476.981c-0.096-0.031-0.174-0.097-0.27-0.131c-6.832-2.861-14.715-1.318-19.964,3.908
				c-5.249,5.226-6.827,13.101-3.997,19.946c2.83,6.845,9.51,11.306,16.916,11.299c8.657,0.007,16.13-6.062,17.9-14.536
				C513.386,488.992,508.966,480.439,501.031,476.981z"/>
			<path d="M478.922,438.859h-16.125l11.886,23.778c4.17-2.556,8.816-4.239,13.655-4.949L478.922,438.859z"/>
			<rect x="36.573" y="219.431" width="18.286" height="164.571"/>
			<path d="M502.859,402.288H9.145c-5.047,0.007-9.136,4.096-9.143,9.143c0.007,5.047,4.096,9.136,9.143,9.143h493.714
				c5.049,0,9.143-4.093,9.143-9.143S507.909,402.288,502.859,402.288z"/>
			<path d="M23.669,457.689c4.838,0.71,9.481,2.393,13.65,4.948l11.889-23.778H33.082L23.669,457.689z"/>
			<rect x="73.145" y="73.145" width="365.714" height="91.429"/>
			<path d="M11.267,476.841c-0.103,0.038-0.188,0.105-0.293,0.138c-7.936,3.458-12.356,12.011-10.586,20.486
				c1.77,8.474,9.243,14.543,17.9,14.537c7.399,0.002,14.069-4.456,16.897-11.293s1.257-14.704-3.98-19.93
				C25.968,475.553,18.097,473.998,11.267,476.841z"/>
			<rect x="36.573" y="73.145" width="18.286" height="91.429"/>
			<rect x="457.145" y="73.145" width="18.286" height="91.429"/>
		</g>
	</g>
</g>
<g>
</g>
<g>
</g>
<g>
</g>
<g>
</g>
<g>
</g>
<g>
</g>
<g>
</g>
<g>
</g>
<g>
</g>
<g>
</g>
<g>
</g>
<g>
</g>
<g>
</g>
<g>
</g>
<g>
</g>
</svg>
