<?xml version="1.0" encoding="iso-8859-1"?>
<!-- Generator: Adobe Illustrator 19.0.0, SVG Export Plug-In . SVG Version: 6.00 Build 0)  -->
<svg xmlns="http://www.w3.org/2000/svg" xmlns:xlink="http://www.w3.org/1999/xlink" version="1.1" id="Capa_1" x="0px" y="0px" viewBox="0 0 512 512" style="enable-background:new 0 0 512 512;" xml:space="preserve" width="512px" height="512px">
<g>
	<g>
		<path d="M105,61c-24.814,0-45,20.186-45,45c0,24.814,20.186,45,45,45c24.814,0,45-20.186,45-45C150,81.186,129.814,61,105,61z" fill="#FFFFFF"/>
	</g>
</g>
<g>
	<g>
		<path d="M256,0c-24.814,0-45,21.186-45,46c0,24.814,20.186,45,45,45c24.814,0,45-20.186,45-45S280.814,0,256,0z" fill="#FFFFFF"/>
	</g>
</g>
<g>
	<g>
		<path d="M135,196H60c-33.137,0-60,26.862-60,60c0,33.704,0,41.409,0,82.5C0,350.926,10.074,361,22.5,361S45,350.926,45,338.5V497    c0,8.284,6.716,15,15,15h30V406c0-8.291,6.709-15,15-15s15,6.709,15,15v106h45V226C165,209.431,151.569,196,135,196z" fill="#FFFFFF"/>
	</g>
</g>
<g>
	<g>
		<path d="M333.538,121.132C333.016,121.119,332.526,121,332,121H180c-0.526,0-1.016,0.119-1.538,0.132    c-3.931,19.105-15.209,35.508-30.672,46.311C174.739,173.328,195,197.307,195,226v286h46V346c0-8.291,6.709-15,15-15    s15,6.709,15,15v166h46V226c0-28.693,20.261-52.672,47.21-58.557C348.747,156.64,337.469,140.237,333.538,121.132z" fill="#FFFFFF"/>
	</g>
</g>
<g>
	<g>
		<path d="M407,61c-24.814,0-45,20.186-45,45c0,24.814,20.186,45,45,45c24.814,0,45-20.186,45-45C452,81.186,431.814,61,407,61z" fill="#FFFFFF"/>
	</g>
</g>
<g>
	<g>
		<path d="M452,196h-75c-16.569,0-30,13.431-30,30v286h45V406c0-8.291,6.709-15,15-15c8.291,0,15,6.709,15,15v106h30    c8.284,0,15-6.716,15-15V338.5c0,12.426,10.074,22.5,22.5,22.5c12.426,0,22.5-10.074,22.5-22.5c0-41.157,0-48.68,0-82.5    C512,222.862,485.137,196,452,196z" fill="#FFFFFF"/>
	</g>
</g>
<g>
</g>
<g>
</g>
<g>
</g>
<g>
</g>
<g>
</g>
<g>
</g>
<g>
</g>
<g>
</g>
<g>
</g>
<g>
</g>
<g>
</g>
<g>
</g>
<g>
</g>
<g>
</g>
<g>
</g>
</svg>
