<?xml version="1.0" encoding="UTF-8" standalone="no"?>
<!-- Generator: Adobe Illustrator 19.0.0, SVG Export Plug-In . SVG Version: 6.00 Build 0)  -->

<svg
   xmlns:dc="http://purl.org/dc/elements/1.1/"
   xmlns:cc="http://creativecommons.org/ns#"
   xmlns:rdf="http://www.w3.org/1999/02/22-rdf-syntax-ns#"
   xmlns:svg="http://www.w3.org/2000/svg"
   xmlns="http://www.w3.org/2000/svg"
   xmlns:sodipodi="http://sodipodi.sourceforge.net/DTD/sodipodi-0.dtd"
   xmlns:inkscape="http://www.inkscape.org/namespaces/inkscape"
   version="1.1"
   id="Capa_1"
   x="0px"
   y="0px"
   viewBox="0 0 511 511"
   style="enable-background:new 0 0 511 511;"
   xml:space="preserve"
   inkscape:version="0.91 r13725"
   sodipodi:docname="wine-glass.svg"><metadata
     id="metadata51"><rdf:RDF><cc:Work
         rdf:about=""><dc:format>image/svg+xml</dc:format><dc:type
           rdf:resource="http://purl.org/dc/dcmitype/StillImage" /></cc:Work></rdf:RDF></metadata><defs
     id="defs49" /><sodipodi:namedview
     pagecolor="#ffffff"
     bordercolor="#666666"
     borderopacity="1"
     objecttolerance="10"
     gridtolerance="10"
     guidetolerance="10"
     inkscape:pageopacity="0"
     inkscape:pageshadow="2"
     inkscape:window-width="1632"
     inkscape:window-height="1029"
     id="namedview47"
     showgrid="false"
     inkscape:zoom="0.46183953"
     inkscape:cx="-44.387712"
     inkscape:cy="255.5"
     inkscape:window-x="48"
     inkscape:window-y="21"
     inkscape:window-maximized="1"
     inkscape:current-layer="Capa_1" /><g
     id="g3"
     style="fill:#ffffff;fill-opacity:1"><path
       d="M407,199.5c0-34.881-11.653-111.125-27.708-181.291C376.839,7.488,367.418,0,356.383,0H154.617   c-11.035,0-20.456,7.488-22.909,18.209C115.653,88.375,104,164.619,104,199.5c0,81.023,63.933,147.391,144,151.313V455.5   c0,22.332-18.168,40.5-40.5,40.5h-32c-4.142,0-7.5,3.357-7.5,7.5s3.358,7.5,7.5,7.5h160c4.142,0,7.5-3.357,7.5-7.5   s-3.358-7.5-7.5-7.5h-32c-22.332,0-40.5-18.168-40.5-40.5V350.813C343.067,346.891,407,280.523,407,199.5z M119,199.5   c0-29.073,9.388-99.531,27.33-177.945c0.869-3.798,4.354-6.555,8.287-6.555h201.767c3.933,0,7.417,2.757,8.287,6.555   C382.612,99.969,392,170.427,392,199.5c0,75.266-61.234,136.5-136.5,136.5S119,274.766,119,199.5z M265.61,496h-20.22   c3.957-3.704,7.368-7.978,10.11-12.692C258.241,488.022,261.653,492.296,265.61,496z"
       id="path5"
       style="fill:#ffffff;fill-opacity:1" /><path
       d="M323.868,297.4c19.63-13.788,34.541-32.879,43.121-55.21c0.886-2.306,0.58-4.901-0.819-6.937S362.458,232,359.988,232   H151.012c-2.471,0-4.783,1.217-6.182,3.253s-1.706,4.631-0.819,6.937c8.58,22.331,23.491,41.422,43.121,55.21   c20.119,14.131,43.76,21.6,68.368,21.6S303.749,311.531,323.868,297.4z M162.559,247h185.882   c-7.756,15.17-19.082,28.213-33.194,38.125C297.666,297.473,277.006,304,255.5,304s-42.166-6.527-59.746-18.875   C181.641,275.213,170.315,262.17,162.559,247z"
       id="path7"
       style="fill:#ffffff;fill-opacity:1" /><path
       d="M351.928,80.122c-4.073,0.752-6.765,4.665-6.012,8.738c5.334,28.872,9.584,57.083,11.968,79.437   c0.41,3.849,3.663,6.706,7.448,6.706c0.266,0,0.534-0.014,0.804-0.043c4.119-0.439,7.102-4.134,6.663-8.252   c-2.458-23.051-6.653-50.913-12.133-80.573C359.913,82.061,356.003,79.366,351.928,80.122z"
       id="path9"
       style="fill:#ffffff;fill-opacity:1" /><path
       d="M339.662,57.022c0.736,3.541,3.856,5.974,7.335,5.974c0.506,0,1.02-0.052,1.535-0.159c4.056-0.844,6.659-4.815,5.815-8.87   c-1.118-5.375-2.274-10.784-3.437-16.077c-0.889-4.045-4.886-6.604-8.934-5.716c-4.045,0.888-6.605,4.888-5.716,8.934   C337.411,46.348,338.555,51.702,339.662,57.022z"
       id="path11"
       style="fill:#ffffff;fill-opacity:1" /><path
       d="M151,199.5c0-15.111,2.882-42.252,7.906-74.464c0.639-4.092-2.162-7.928-6.254-8.566c-4.092-0.646-7.928,2.162-8.566,6.254   C138.947,155.666,136,183.65,136,199.5c0,4.142,3.358,7.5,7.5,7.5S151,203.642,151,199.5z"
       id="path13"
       style="fill:#ffffff;fill-opacity:1" /><path
       d="M156.346,94.881c0.46,0.085,0.919,0.126,1.371,0.126c3.547,0,6.7-2.526,7.367-6.139c0.967-5.236,1.988-10.594,3.035-15.924   c0.798-4.064-1.849-8.007-5.914-8.805c-4.064-0.797-8.007,1.849-8.805,5.914c-1.058,5.386-2.09,10.8-3.067,16.091   C149.581,90.216,152.272,94.128,156.346,94.881z"
       id="path15"
       style="fill:#ffffff;fill-opacity:1" /></g><g
     id="g17"
     style="fill:#ffffff;fill-opacity:1" /><g
     id="g19"
     style="fill:#ffffff;fill-opacity:1" /><g
     id="g21"
     style="fill:#ffffff;fill-opacity:1" /><g
     id="g23"
     style="fill:#ffffff;fill-opacity:1" /><g
     id="g25"
     style="fill:#ffffff;fill-opacity:1" /><g
     id="g27"
     style="fill:#ffffff;fill-opacity:1" /><g
     id="g29"
     style="fill:#ffffff;fill-opacity:1" /><g
     id="g31"
     style="fill:#ffffff;fill-opacity:1" /><g
     id="g33"
     style="fill:#ffffff;fill-opacity:1" /><g
     id="g35"
     style="fill:#ffffff;fill-opacity:1" /><g
     id="g37"
     style="fill:#ffffff;fill-opacity:1" /><g
     id="g39"
     style="fill:#ffffff;fill-opacity:1" /><g
     id="g41"
     style="fill:#ffffff;fill-opacity:1" /><g
     id="g43"
     style="fill:#ffffff;fill-opacity:1" /><g
     id="g45"
     style="fill:#ffffff;fill-opacity:1" /></svg>